<svg xmlns="http://www.w3.org/2000/svg" version="1.1" xmlns:xlink="http://www.w3.org/1999/xlink" xmlns:svgjs="http://svgjs.dev/svgjs" width="1000" height="1000"><style>
    #light-icon {
      display: inline;
    }
    #dark-icon {
      display: none;
    }

    @media (prefers-color-scheme: dark) {
      #light-icon {
        display: none;
      }
      #dark-icon {
        display: inline;
      }
    }
  </style><g id="light-icon"><svg xmlns="http://www.w3.org/2000/svg" version="1.1" xmlns:xlink="http://www.w3.org/1999/xlink" xmlns:svgjs="http://svgjs.dev/svgjs" width="1000" height="1000"><g clip-path="url(#SvgjsClipPath1165)"><rect width="1000" height="1000" fill="#163356"></rect><g transform="matrix(21.875,0,0,21.875,150,150)"><svg xmlns="http://www.w3.org/2000/svg" version="1.1" xmlns:xlink="http://www.w3.org/1999/xlink" xmlns:svgjs="http://svgjs.dev/svgjs" width="32" height="32"><svg width="32" height="32" viewBox="0 0 32 32" fill="none" xmlns="http://www.w3.org/2000/svg">
<g clip-path="url(#clip0_32_27)">
<g filter="url(#filter0_di_32_27)">
<path d="M24.6625 4.70968C24.75 3.80645 24.75 2.99355 24.75 2H7.25C7.25 2.99355 7.25 3.80645 7.3375 4.70968H2V5.6129C2 13.6516 11.8875 19.3419 14.25 20.6065V23.6774C14.25 25.2129 13.1125 26.3871 11.625 26.3871H9.875V30H22.125V26.3871H20.375C18.8875 26.3871 17.75 25.2129 17.75 23.6774V20.6065C20.1125 19.3419 30 13.6516 30 5.6129V4.70968H24.6625ZM3.8375 6.51613H7.5125C7.8625 10.5806 8.825 13.471 9.875 15.5484C7.075 13.2903 4.1875 10.129 3.8375 6.51613ZM22.2125 15.5484C23.2625 13.471 24.225 10.5806 24.575 6.51613H28.25C27.8125 10.129 24.925 13.2903 22.2125 15.5484Z" fill="#FF8C2A"></path>
<path d="M6.75 2.01193C6.75 2.79952 6.75 3.49036 6.79592 4.20968H2H1.5V4.70968V5.6129C1.5 9.84057 4.09519 13.3969 6.89771 16.0153C9.52385 18.469 12.405 20.1682 13.75 20.9043V23.6774C13.75 24.9518 12.8215 25.8871 11.625 25.8871H9.875H9.375V26.3871V30V30.5H9.875H22.125H22.625V30V26.3871V25.8871H22.125H20.375C19.1785 25.8871 18.25 24.9518 18.25 23.6774V20.9043C19.595 20.1682 22.4761 18.469 25.1023 16.0153C27.9048 13.3969 30.5 9.84057 30.5 5.6129V4.70968V4.20968H30H25.2041C25.25 3.49037 25.25 2.79954 25.25 2.01196V2V1.5H24.75H7.25H6.75V2V2.01193ZM7.05671 7.01613C7.32683 9.7358 7.87108 11.9298 8.52984 13.7071C6.54188 11.8082 4.84331 9.51543 4.40938 7.01613H7.05671ZM25.0308 7.01613H27.6645C27.1777 9.48898 25.502 11.7571 23.5816 13.6421C24.2296 11.8764 24.764 9.70274 25.0308 7.01613Z" stroke="#2B64A9"></path>
</g>
</g>
<defs>
<filter id="filter0_di_32_27" x="-3" y="1" width="38" height="38" filterUnits="userSpaceOnUse" color-interpolation-filters="sRGB">
<feFlood flood-opacity="0" result="BackgroundImageFix"></feFlood>
<feColorMatrix in="SourceAlpha" type="matrix" values="0 0 0 0 0 0 0 0 0 0 0 0 0 0 0 0 0 0 127 0" result="hardAlpha"></feColorMatrix>
<feOffset dy="4"></feOffset>
<feGaussianBlur stdDeviation="2"></feGaussianBlur>
<feComposite in2="hardAlpha" operator="out"></feComposite>
<feColorMatrix type="matrix" values="0 0 0 0 0 0 0 0 0 0 0 0 0 0 0 0 0 0 0.25 0"></feColorMatrix>
<feBlend mode="normal" in2="BackgroundImageFix" result="effect1_dropShadow_32_27"></feBlend>
<feBlend mode="normal" in="SourceGraphic" in2="effect1_dropShadow_32_27" result="shape"></feBlend>
<feColorMatrix in="SourceAlpha" type="matrix" values="0 0 0 0 0 0 0 0 0 0 0 0 0 0 0 0 0 0 127 0" result="hardAlpha"></feColorMatrix>
<feOffset dy="4"></feOffset>
<feGaussianBlur stdDeviation="2"></feGaussianBlur>
<feComposite in2="hardAlpha" operator="arithmetic" k2="-1" k3="1"></feComposite>
<feColorMatrix type="matrix" values="0 0 0 0 0 0 0 0 0 0 0 0 0 0 0 0 0 0 0.25 0"></feColorMatrix>
<feBlend mode="normal" in2="shape" result="effect2_innerShadow_32_27"></feBlend>
</filter>
<clipPath id="clip0_32_27">
<rect width="32" height="32" fill="white"></rect>
</clipPath>
<clipPath id="SvgjsClipPath1165"><rect width="1000" height="1000" x="0" y="0" rx="500" ry="500"></rect></clipPath></defs>
</svg></svg></g></g></svg></g><g id="dark-icon"><svg xmlns="http://www.w3.org/2000/svg" version="1.1" xmlns:xlink="http://www.w3.org/1999/xlink" xmlns:svgjs="http://svgjs.dev/svgjs" width="1000" height="1000"><g clip-path="url(#SvgjsClipPath1166)"><rect width="1000" height="1000" fill="#dde9f6"></rect><g transform="matrix(21.875,0,0,21.875,150,150)"><svg xmlns="http://www.w3.org/2000/svg" version="1.1" xmlns:xlink="http://www.w3.org/1999/xlink" xmlns:svgjs="http://svgjs.dev/svgjs" width="32" height="32"><svg width="32" height="32" viewBox="0 0 32 32" fill="none" xmlns="http://www.w3.org/2000/svg">
<g clip-path="url(#clip0_32_27)">
<g filter="url(#filter0_di_32_27)">
<path d="M24.6625 4.70968C24.75 3.80645 24.75 2.99355 24.75 2H7.25C7.25 2.99355 7.25 3.80645 7.3375 4.70968H2V5.6129C2 13.6516 11.8875 19.3419 14.25 20.6065V23.6774C14.25 25.2129 13.1125 26.3871 11.625 26.3871H9.875V30H22.125V26.3871H20.375C18.8875 26.3871 17.75 25.2129 17.75 23.6774V20.6065C20.1125 19.3419 30 13.6516 30 5.6129V4.70968H24.6625ZM3.8375 6.51613H7.5125C7.8625 10.5806 8.825 13.471 9.875 15.5484C7.075 13.2903 4.1875 10.129 3.8375 6.51613ZM22.2125 15.5484C23.2625 13.471 24.225 10.5806 24.575 6.51613H28.25C27.8125 10.129 24.925 13.2903 22.2125 15.5484Z" fill="#FF8C2A"></path>
<path d="M6.75 2.01193C6.75 2.79952 6.75 3.49036 6.79592 4.20968H2H1.5V4.70968V5.6129C1.5 9.84057 4.09519 13.3969 6.89771 16.0153C9.52385 18.469 12.405 20.1682 13.75 20.9043V23.6774C13.75 24.9518 12.8215 25.8871 11.625 25.8871H9.875H9.375V26.3871V30V30.5H9.875H22.125H22.625V30V26.3871V25.8871H22.125H20.375C19.1785 25.8871 18.25 24.9518 18.25 23.6774V20.9043C19.595 20.1682 22.4761 18.469 25.1023 16.0153C27.9048 13.3969 30.5 9.84057 30.5 5.6129V4.70968V4.20968H30H25.2041C25.25 3.49037 25.25 2.79954 25.25 2.01196V2V1.5H24.75H7.25H6.75V2V2.01193ZM7.05671 7.01613C7.32683 9.7358 7.87108 11.9298 8.52984 13.7071C6.54188 11.8082 4.84331 9.51543 4.40938 7.01613H7.05671ZM25.0308 7.01613H27.6645C27.1777 9.48898 25.502 11.7571 23.5816 13.6421C24.2296 11.8764 24.764 9.70274 25.0308 7.01613Z" stroke="#2B64A9"></path>
</g>
</g>
<defs>
<filter id="filter0_di_32_27" x="-3" y="1" width="38" height="38" filterUnits="userSpaceOnUse" color-interpolation-filters="sRGB">
<feFlood flood-opacity="0" result="BackgroundImageFix"></feFlood>
<feColorMatrix in="SourceAlpha" type="matrix" values="0 0 0 0 0 0 0 0 0 0 0 0 0 0 0 0 0 0 127 0" result="hardAlpha"></feColorMatrix>
<feOffset dy="4"></feOffset>
<feGaussianBlur stdDeviation="2"></feGaussianBlur>
<feComposite in2="hardAlpha" operator="out"></feComposite>
<feColorMatrix type="matrix" values="0 0 0 0 0 0 0 0 0 0 0 0 0 0 0 0 0 0 0.25 0"></feColorMatrix>
<feBlend mode="normal" in2="BackgroundImageFix" result="effect1_dropShadow_32_27"></feBlend>
<feBlend mode="normal" in="SourceGraphic" in2="effect1_dropShadow_32_27" result="shape"></feBlend>
<feColorMatrix in="SourceAlpha" type="matrix" values="0 0 0 0 0 0 0 0 0 0 0 0 0 0 0 0 0 0 127 0" result="hardAlpha"></feColorMatrix>
<feOffset dy="4"></feOffset>
<feGaussianBlur stdDeviation="2"></feGaussianBlur>
<feComposite in2="hardAlpha" operator="arithmetic" k2="-1" k3="1"></feComposite>
<feColorMatrix type="matrix" values="0 0 0 0 0 0 0 0 0 0 0 0 0 0 0 0 0 0 0.25 0"></feColorMatrix>
<feBlend mode="normal" in2="shape" result="effect2_innerShadow_32_27"></feBlend>
</filter>
<clipPath id="clip0_32_27">
<rect width="32" height="32" fill="white"></rect>
</clipPath>
<clipPath id="SvgjsClipPath1166"><rect width="1000" height="1000" x="0" y="0" rx="500" ry="500"></rect></clipPath></defs>
</svg></svg></g></g></svg></g></svg>